<?xml version="1.0" encoding="utf-8"?>
<svg xmlns="http://www.w3.org/2000/svg" width="172.616" height="60.904" viewBox="0 0 172.616 60.904">
  <g id="LOGO_WHITE" transform="translate(0 -0.846)">
    <g id="Groupe_73" data-name="Groupe 73" transform="translate(56.391 55.793)">
      <path id="Tracé_39" data-name="Tracé 39" d="M216.992,565.705h1.136l1.689,4.108h.017v-4.108h.881v5.515h-1.134L217.891,567h-.017v4.218h-.882Z" transform="translate(-216.992 -565.597)" fill="#f4f4f4"/>
      <path id="Tracé_40" data-name="Tracé 40" d="M253.061,568.3c0-1.969.587-2.866,1.926-2.866s1.926.9,1.926,2.866-.586,2.866-1.926,2.866S253.061,570.268,253.061,568.3Zm2.921-.024c0-1.852-.44-2.177-1-2.177s-1,.325-1,2.177c0,1.9.441,2.225,1,2.225S255.982,570.175,255.982,568.275Z" transform="translate(-238.734 -565.433)" fill="#f4f4f4"/>
      <path id="Tracé_41" data-name="Tracé 41" d="M289.456,565.705h2.056a1.312,1.312,0,0,1,1.477,1.421,1.216,1.216,0,0,1-.972,1.353v.014c.58.053.882.356.914,1.127.008.356.017.788.034,1.12a.566.566,0,0,0,.277.479H292.19a.886.886,0,0,1-.155-.487c-.033-.333-.025-.641-.041-1.043-.016-.6-.212-.865-.849-.865h-.76v2.4h-.929Zm1.673,2.457a.837.837,0,0,0,.93-.9.778.778,0,0,0-.881-.894h-.792v1.791Z" transform="translate(-260.672 -565.597)" fill="#f4f4f4"/>
      <path id="Tracé_42" data-name="Tracé 42" d="M325.109,565.705h1.453l1.028,4.086h.017l1.012-4.086h1.42v5.515h-.881v-4.588h-.016l-1.176,4.588h-.783l-1.175-4.588h-.017v4.588h-.881Z" transform="translate(-282.163 -565.597)" fill="#f4f4f4"/>
      <path id="Tracé_43" data-name="Tracé 43" d="M364.825,565.705h1.191l1.534,5.515h-.971l-.359-1.351h-1.706l-.375,1.351h-.972Zm1.238,3.46-.668-2.719h-.016l-.694,2.719Z" transform="translate(-305.104 -565.597)" fill="#f4f4f4"/>
      <path id="Tracé_44" data-name="Tracé 44" d="M399.852,565.705h1.134l1.689,4.108h.016v-4.108h.882v5.515h-1.135L400.748,567h-.015v4.218h-.881Z" transform="translate(-327.218 -565.597)" fill="#f4f4f4"/>
      <path id="Tracé_45" data-name="Tracé 45" d="M436.266,565.705h1.656c1.83,0,2.058,1.128,2.058,2.757s-.228,2.758-2.058,2.758h-1.656Zm.929,4.85h.768c.767,0,1.085-.479,1.085-2.093,0-1.553-.278-2.092-1.085-2.092H437.2Z" transform="translate(-349.167 -565.597)" fill="#f4f4f4"/>
      <path id="Tracé_46" data-name="Tracé 46" d="M472.209,565.705h.93v5.515h-.93Z" transform="translate(-370.833 -565.597)" fill="#f4f4f4"/>
      <path id="Tracé_47" data-name="Tracé 47" d="M501.5,565.705h3.151v.742h-2.221v1.529h2.09v.741h-2.09v1.761h2.286v.742H501.5Z" transform="translate(-388.487 -565.597)" fill="#f4f4f4"/>
    </g>
    <g id="Groupe_74" data-name="Groupe 74" transform="translate(56.708 0.846)">
      <path id="Tracé_48" data-name="Tracé 48" d="M227.578,437.762h4.079v14.376c0,4.563-1.573,6.734-6.905,6.734-5.39,0-6.963-2.171-6.963-6.734V437.762h4.079v14.046c0,1.979.146,3.958,2.914,3.958,2.651,0,2.8-1.979,2.8-3.958Z" transform="translate(-217.789 -432.457)" fill="#f4f4f4"/>
      <path id="Tracé_49" data-name="Tracé 49" d="M267.968,437.762h4.079v20.615h-4.254l-3.175-7.339a66.576,66.576,0,0,1-2.914-8.191h-.058c.146,1.7.321,3.793.437,5.882.116,2.062.2,4.123.2,5.772v3.876h-4.079V437.762h4.225l3.176,7.5a66.467,66.467,0,0,1,2.914,8.191h.058c-.145-1.869-.292-3.875-.408-5.854s-.2-3.958-.2-5.8Z" transform="translate(-242.152 -432.457)" fill="#f4f4f4"/>
      <path id="Tracé_50" data-name="Tracé 50" d="M298.7,458.377V437.762h4.079v20.615Z" transform="translate(-266.562 -432.457)" fill="#f4f4f4"/>
      <path id="Tracé_51" data-name="Tracé 51" d="M321.8,437.762h4.37l-4.72,20.615h-5.448l-4.836-20.615h4.371l2.563,13.221a35.144,35.144,0,0,1,.5,3.518,16.172,16.172,0,0,1,.174,1.7h.058a16.179,16.179,0,0,1,.175-1.7,35.366,35.366,0,0,1,.495-3.518Z" transform="translate(-274.078 -432.457)" fill="#f4f4f4"/>
      <path id="Tracé_52" data-name="Tracé 52" d="M350.93,458.377V437.762h9.906v1.594h-8.013v7.422h7.284v1.594h-7.284v8.411h8.158v1.594Z" transform="translate(-298.045 -432.457)" fill="#f4f4f4"/>
      <path id="Tracé_53" data-name="Tracé 53" d="M380.7,448.674v9.7H378.8V437.762h4.224c3.992,0,6.73,1.1,6.73,5.277,0,2.007-.9,4.371-3.205,4.838v.054c2.535.6,2.885,2.446,2.914,5.03.058.99-.087,4.618.991,5.167v.247H388.39c-.815-1.731-.757-5.25-.874-6.761-.2-2.749-2.389-2.941-4.866-2.941Zm0-1.594h3.321a3.661,3.661,0,0,0,3.845-3.9c0-3.024-1.457-3.821-4.428-3.821H380.7Z" transform="translate(-314.847 -432.457)" fill="#f4f4f4"/>
      <path id="Tracé_54" data-name="Tracé 54" d="M416.061,446.385c3.205,1.264,5.594,2.2,5.594,5.937,0,3.546-2.448,5.8-6.264,5.8-3.992,0-6.089-2.666-6-6.322h1.865c-.029,2.584,1.107,4.728,4.108,4.728,2.651,0,4.4-1.594,4.4-4.151,0-3.106-2.39-3.6-4.895-4.535-2.943-1.1-5.041-2.336-5.041-5.634a5.327,5.327,0,0,1,5.681-5.69c3.409,0,5.652,2.226,5.565,5.47h-1.836a3.476,3.476,0,0,0-3.758-3.876c-2.477,0-3.758,1.732-3.758,3.986,0,2.034.7,2.831,2.651,3.628Z" transform="translate(-333.281 -431.707)" fill="#f4f4f4"/>
      <path id="Tracé_55" data-name="Tracé 55" d="M444.531,458.377V437.762h1.894v20.615Z" transform="translate(-354.466 -432.457)" fill="#f4f4f4"/>
      <path id="Tracé_56" data-name="Tracé 56" d="M452.086,439.356v-1.594h11.8v1.594h-4.953v19.021h-1.893V439.356Z" transform="translate(-359.02 -432.457)" fill="#f4f4f4"/>
      <path id="Tracé_57" data-name="Tracé 57" d="M483.7,450.327V429.712h9.907v1.594h-8.013v7.422h7.284v1.594h-7.284v8.411h8.158v1.594Zm2.71-22.1,3.234-3.82h2.272l-4.02,3.82Z" transform="translate(-378.077 -424.407)" fill="#f4f4f4"/>
    </g>
    <g id="Groupe_75" data-name="Groupe 75" transform="translate(56.364 32.104)">
      <path id="Tracé_58" data-name="Tracé 58" d="M216.925,507.041H220.9c2.523,0,4.78.138,6.591,1.951,1.484,1.649,2.137,4.728,2.137,6.79,0,2.336.059,5.442-.861,7.669-1.366,3.546-3.77,4.205-7.481,4.205h-4.364Zm1.93,19.021h2.315a8.9,8.9,0,0,0,3.414-.44c2.969-1.264,3.117-5.8,3.117-8.3,0-2.611.06-6.734-2.879-8.219a9.771,9.771,0,0,0-4.3-.467h-1.662Z" transform="translate(-216.925 -506.547)" fill="#f4f4f4"/>
      <path id="Tracé_59" data-name="Tracé 59" d="M256.613,527.656V507.041h10.094v1.594h-8.164v7.421h7.422v1.594h-7.422v8.411h8.312v1.594Z" transform="translate(-240.848 -506.547)" fill="#f4f4f4"/>
      <path id="Tracé_60" data-name="Tracé 60" d="M309.572,518.778v8.878h-4.156V507.041h7.868c3.592,0,6.323,1.155,6.323,4.948,0,2.254-.623,4.618-3.414,4.975v.055c2.464.3,3.206,1.759,3.206,3.738,0,.852-.119,5.91.89,6.515v.385h-4.572c-.5-1.319-.415-3.848-.446-5.222-.029-1.265,0-3-1.424-3.381a13.753,13.753,0,0,0-3.533-.275Zm0-3.023h3.266c1.365-.083,2.433-.907,2.433-2.969,0-2.309-1.039-2.693-2.612-2.721h-3.088Z" transform="translate(-270.266 -506.547)" fill="#f4f4f4"/>
      <path id="Tracé_61" data-name="Tracé 61" d="M349.215,514.949c.178-5.25.624-9.153,7.273-9.153s7.1,3.9,7.273,9.153v2.941c0,5.5-.445,9.51-7.273,9.51s-7.273-4.013-7.273-9.51Zm4.275,4.865c0,1.7.149,4.48,3,4.48,2.969,0,3-2.831,3-4.81v-5.277c0-1.65.089-5.305-3-5.305-3.265,0-3,3.6-3,5.2Z" transform="translate(-296.668 -505.796)" fill="#f4f4f4"/>
      <path id="Tracé_62" data-name="Tracé 62" d="M403.883,507.041h4.156v14.375c0,4.563-1.6,6.734-7.036,6.734-5.492,0-7.1-2.171-7.1-6.734V507.041h4.157v14.046c0,1.979.148,3.958,2.968,3.958,2.7,0,2.85-1.979,2.85-3.958Z" transform="translate(-323.608 -506.547)" fill="#f4f4f4"/>
      <path id="Tracé_63" data-name="Tracé 63" d="M437.781,527.656V507.041h11.7v3.024h-7.54v5.195h6.946v3.024h-6.946v6.349h7.54v3.024Z" transform="translate(-350.054 -506.547)" fill="#f4f4f4"/>
      <path id="Tracé_64" data-name="Tracé 64" d="M483.9,507.041h4.156v20.615h-4.334l-3.236-7.338a65.8,65.8,0,0,1-2.968-8.191h-.06c.148,1.7.327,3.793.445,5.882.119,2.062.208,4.123.208,5.773v3.875h-4.156V507.041h4.3l3.236,7.5a65.513,65.513,0,0,1,2.969,8.191h.059c-.148-1.869-.3-3.876-.415-5.854s-.208-3.958-.208-5.8Z" transform="translate(-371.859 -506.547)" fill="#f4f4f4"/>
    </g>
    <g id="Groupe_76" data-name="Groupe 76" transform="translate(0 5.724)">
      <path id="Tracé_65" data-name="Tracé 65" d="M191.739,441.58a6.119,6.119,0,0,0-6.178-4.561c-5.169,0-7.827.076-7.827.076v20.521s6.464-7.145,14-1.673V441.58Z" transform="translate(-138.089 -436.947)" fill="#f4f4f4"/>
      <path id="Tracé_66" data-name="Tracé 66" d="M191.739,504.6s-10.27-6.426-14.005,5.232v23.717l8.619.067a6.253,6.253,0,0,0,5.458-4.506C191.739,529.176,191.739,504.6,191.739,504.6Z" transform="translate(-138.089 -477.662)" fill="#f4f4f4"/>
      <path id="Tracé_67" data-name="Tracé 67" d="M131.081,436.839l-15.657.072.072,29.374s.375,6.668,5.074,8.144l0,0,.051.013a6.552,6.552,0,0,0,2.012.276c.326.016.684.019,1.061.005,1.574.067,6.914-.315,7.464-8.51C131.081,466.142,131.081,436.839,131.081,436.839Z" transform="translate(-100.557 -436.839)" fill="#f4f4f4"/>
      <path id="Tracé_68" data-name="Tracé 68" d="M108.524,486.822l.018-5.913-.091.1a27.725,27.725,0,0,1-12.638.79.081.081,0,0,1,.035-.023c-.262-.042-.516-.092-.766-.146a15.079,15.079,0,0,1-4.743-2.053c-5.057-3.6-6.259-10.3-6.542-13.467-.008-7.2-.158-29.088-.158-29.088a6.7,6.7,0,0,0-5.531,4.933c.072-.07-.071,45.523-.071,45.523s.718,5.074,5.745,5.427l24.777.069Z" transform="translate(-78.037 -436.949)" fill="#f4f4f4"/>
    </g>
  </g>
</svg>
